<?xml version="1.0" encoding="UTF-8"?><svg id="Layer_2" xmlns="http://www.w3.org/2000/svg" viewBox="0 0 137.88 167.06"><defs><style>.cls-1{fill:#4170b7;}</style></defs><g id="Layer_1-2"><path class="cls-1" d="m137.88,102.32c-12.01,1.47-22.88,2.79-34.37,4.2,1.47,1.87,2.7,3.42,3.9,4.99,2.8,3.64,2.41,5.73-1.3,8.26-4.49,3.07-9.43,2.93-14.28,1.71-5.25-1.32-10-.62-15.22.75-9.94,2.6-20.29,3.86-29.19,9.44-5.13,3.22-10.37,6.56-14.67,10.76-7.47,7.3-14.25,15.31-21.34,23.01-.46.5-1.1.82-2.21,1.63.23-1.47.35-2.3.55-3.58-1.53,1.05-2.72,1.87-4.12,2.84,1.21-7.35,7.31-10.11,12.97-14.43-1.72-.18-2.35-.35-2.95-.27-.64.08-1.26.39-1.89.6-.17-.36-.33-.73-.5-1.09,1.64-.68,3.24-1.79,4.92-1.94,4.1-.37,7.05-2.4,9.49-5.48.27-.34.59-.65.87-.98,4.51-5.26,8.68-10.85,15.64-13.34,1.92-.69,3.46-2.42,6.13-4.36-9.34-2.71-16.09,1.44-23.1,4.71.47-4.9,1.47-9.06,5.97-11.71,1.08-.63,1.17-2.94,1.74-4.56-12.56.44-23.42-4.92-34.92-7.51.02-.38.04-.76.05-1.13,13.33-1.7,26.67-3.4,38.84-4.95,0-7.13-.22-12.83.06-18.51.35-7,.79-14.02,1.81-20.95.65-4.42,2.53-8.66,3.64-13.03.62-2.43.97-4.96,1.16-7.46.45-5.77.47-11.58,1.17-17.31.36-2.95,1.79-5.77,2.91-9.15.82.32,2.09.83,3.47,1.37-.5-2.36-1.01-4.75-1.52-7.15.33-.21.66-.42.99-.63,1.56,1.14,3.12,2.28,5.05,3.68-.59-2.91-1.12-5.52-1.66-8.14.37-.21.74-.41,1.12-.62,1.58,1.66,3.17,3.33,5.21,5.48-.29-2.8-.51-4.91-.74-7.01.25-.15.5-.3.75-.45,1.9,2.39,3.79,4.79,6.52,8.23-1.09-3.51-1.8-5.82-2.52-8.13,9.35,9.93,16.32,20.98,18.69,34.5.45,2.55,1.03,5.15,2.08,7.49,2.35,5.26,2.64,10.48-.03,15.56-6.18,11.77-6.64,24.55-6.94,37.37-.02.94.23,2.19.84,2.81,3.93,3.97,7.99,7.82,12.05,11.67.59.56,1.39.9,2.99,1.89-.9-2.05-1.85-3.2-1.79-4.29.1-1.8.32-4.56,1.43-5.16,4.04-2.2,8.45-3.73,12.78-5.35.88-.33,2.24-.37,2.99.09,7.8,4.87,16.95,3.17,26.49,5.65Z"/></g></svg>