<?xml version="1.0" encoding="UTF-8"?><svg id="Layer_2" xmlns="http://www.w3.org/2000/svg" viewBox="0 0 151.6 311.4"><defs><style>.cls-1{fill:#4170b7;}</style></defs><g id="Layer_1-2"><path class="cls-1" d="m57.72,301.05c.43-1.48,1.38-2.25,2.37-3.02,3.55-2.77,7.88-3.61,12.02-4.87,3.53-1.08,7.12-1.98,10.68-2.97.34-.1.67-.25.98-.5-1.73-.11-3.45-.21-5.18-.33-1.62-.11-3.24-.18-4.85-.38-.55-.07-1.28-.34-1.53-.76-.48-.79-1.14-.86-1.81-.72-.56.11-1.07.52-1.56.85-.19.13-.29.39-.45.63-.33-1.31.58-2.66,1.95-2.86,2.3-.34,4.57,0,6.84.38,2.86.47,5.75.81,8.63,1.18,1.46.19,2.74-.4,3.96-1.1.16-.09.31-.28.36-.45,1.05-3.84,2.08-7.68,3.12-11.52.01-.05-.02-.11-.05-.21-3-.77-6.08-1.11-9.19-.96-1.48.07-2.97.15-4.42.41-.71.12-1.43.55-1.99,1.03-2.53,2.17-5.02,4.39-7.51,6.61-2.4,2.14-4.75,4.35-7.21,6.42-.84.71-1.9,1.31-2.95,1.58-.98.25-1.57.68-1.96,1.53-.18.38-.37.76-.76,1.17-.08-.4-.3-.84-.22-1.21.35-1.46.84-2.82,2.09-3.87,3.41-2.86,6.74-5.8,10.1-8.71.08-.07.22-.08.33-.11-.06-.1-.12-.2-.18-.31-1.51.31-3.05.53-4.53.94-5.22,1.43-10.39,2.99-15.31,5.29-1,.47-1.96,1.04-2.94,1.56-.71.37-1.44.48-2.23.2-.22-.08-.59-.02-.76.13-.67.59-1.28,1.24-1.95,1.9-.21-.99.29-1.74.93-2.44.15-.16.46-.31.46-.46,0-1.29,1.05-1.67,1.91-2.05,4.07-1.78,8.17-3.46,12.26-5.2,1.77-.75,3.51-1.56,5.27-2.35-.02-.08-.04-.16-.05-.23-1.63,0-3.27.08-4.9-.02-1.93-.12-3.9-.21-5.75-.68-1.2-.31-2.15-.17-3.17.29-.14.06-.29.12-.57.23.47-1,1.16-1.46,2.06-1.68.3-.07.55-.34.84-.46.45-.2.92-.48,1.39-.5,1.45-.07,2.91.03,4.36-.07,3.69-.24,7.38-.49,11.07-.84,1.84-.17,3.48-1.03,5.02-2.04.25-.16.44-.44.59-.7,2.29-3.77,3.86-7.86,5.18-12.05,1.78-5.64,3.53-11.29,5.27-16.94,1.49-4.84,1.85-9.77,1.69-14.85-.15-5-1.63-9.62-2.97-14.31-2.01-7.03-5.1-13.64-8.25-20.2-2.67-5.56-5.8-10.9-8.66-16.38-.68-1.31-1.55-2.36-2.77-3.15-1.71-1.11-3.41-2.23-5.2-3.21l5.88,6.07s-.08.08-.12.12c-2.36-2.01-4.72-4.02-7.09-6.02-.06.06-.12.11-.17.17,3.81,3.88,7.15,8.09,9.37,13.1-3.42-5.65-7.65-10.58-13.03-14.47,3.39,3.85,6.6,7.83,9.08,12.35-4.36-6.2-9.72-11.41-15.58-16.14,2.09,2.25,4.25,4.45,6.25,6.78,1.99,2.32,3.82,4.78,5.59,7.27-2.87-3.29-5.75-6.58-8.62-9.87-.08.07-.16.14-.24.2,3.02,3.53,5.68,7.29,7.59,11.54-2.59-4.29-5.97-7.91-9.57-11.34,3.09,3.73,5.77,7.69,7.55,12.25-.06-.06-.13-.12-.17-.19-2.59-4.31-5.98-7.96-9.41-11.6-4.73-5.02-9.69-9.83-13.87-15.35-2.76-3.65-5.02-7.58-6.96-11.73-1.46-3.12-3.03-6.19-3.98-9.51-.44-1.53-.77-3.09-1.22-4.62-.73-2.48-1.51-4.94-2.29-7.41-1.73-5.48-2.75-11.09-3.31-16.81-.46-4.64-.5-9.28-.26-13.92.35-7,1.03-13.97,3.03-20.73,1.2-4.06,2.95-7.83,5.9-10.96,2.69-2.84,6.02-4.71,9.62-6.04,3.92-1.45,7.93-2.66,11.9-3.96,3.12-1.02,6.2-2.12,8.72-4.36,2.8-2.49,4.56-5.48,4.77-9.31.13-2.25-.72-4.03-2.32-5.55-2.21-2.1-4.95-3.22-7.73-4.24-3.33-1.22-6.7-2.45-9.16-5.11-1.27-1.37-2.71-1.87-4.4-2.05-3.48-.37-6.96-.74-10.45-1.04-7.07-.59-14.14-1.16-21.07-2.76-.41-.1-.84-.2-1.22-.37-.23-.11-.4-.36-.59-.54.2-.19.36-.45.59-.57.38-.18.8-.32,1.21-.4,4.06-.75,8.1-1.6,12.18-2.2,4.9-.73,9.83-1.28,14.75-1.83,2.06-.23,4.15-.21,6.22-.39.77-.06,1.57-.23,2.26-.56,2.29-1.09,4.5-2.34,6.8-3.4,7.42-3.43,14.65-2.71,21.73,1.06.77.41,1.64.62,2.42,1.01,4.21,2.1,7.61,5.2,10.63,8.74,6.94,8.13,12.26,17.19,15.58,27.38,1.62,4.98,2.5,10.1,2.83,15.32.02.3,0,.6-.09.9-.38-2.11-.69-4.24-1.16-6.33-2.42-10.78-7.03-20.59-13.35-29.62-.37-.53-.86-1-1.35-1.42-.88-.76-1.82-1.46-2.8-2.14,8.34,10.4,11.36,22.49,11.56,35.4-.51-3.26-.94-6.65-1.6-9.99-1.09-5.53-2.95-10.8-5.56-15.81-1.05-2.01-2.67-3.35-4.45-4.63,3.14,5.45,5.16,11.26,5.88,17.51-.6-1.87-1.14-3.76-1.83-5.59-.74-1.94-1.47-3.91-2.51-5.69-.75-1.29-1.99-2.28-3.02-3.41-.09.04-.18.08-.27.12-.09.33-.17.67-.28,1-.82,2.36-1.68,4.71-2.48,7.07-.71,2.1-1.33,4.23-2.06,6.33-1.7,4.9-4.09,9.4-7.65,13.22-3.05,3.28-6.6,5.96-10.31,8.43-3.49,2.32-7.02,4.56-10.51,6.89-1.52,1.02-2.92,2.2-3.77,3.89-1.2,2.39-1.08,4.73.3,7,1.6,2.64,3.87,4.68,6.41,6.32,1.19.77,2.86.91,4.35,1.09,2.65.32,5.33.45,7.99.67,5.71.49,11.01,2.26,16,5.06,9.08,5.09,16.83,11.78,23.66,19.59,5.87,6.71,11.07,13.93,15.87,21.42,8.07,12.63,16.09,25.29,23.94,38.06,4.8,7.82,8.86,16.05,12.19,24.61.5,1.29.88,2.64,1.19,4,.32,1.4-.09,1.94-1.46,2.25.42,1.11.88,2.21,1.26,3.34.42,1.24-.18,1.91-1.41,1.47-1.49-.53-2.97-1.17-4.36-1.93-5.95-3.25-11.87-6.55-17.8-9.84-.22-.12-.45-.24-.81-.44.13.38.21.64.3.89,2.05,5.67,4.11,11.34,6.13,17.02.35.99.54,2.03.73,3.07.35,1.9-.32,2.9-2.21,3.19-2.65.41-5.08-.18-6.78-2.34-1.79-2.28-3.43-4.69-4.96-7.16-4.38-7.05-10-12.93-16.67-17.81-4.17-3.04-8.45-5.92-12.68-8.87-.16-.11-.34-.2-.67-.39.29.93.52,1.73.78,2.52,1.91,5.63,2.84,11.47,3.74,17.33.83,5.35,2.18,10.58,3.81,15.74.93,2.96,1.91,5.9,2.96,8.82.34.95.85,1.88,1.46,2.69,1.62,2.17,1.91,4.5,1.13,7.04-1.47,4.79-1.86,9.77-2.54,14.7-.71,5.1-1.41,10.21-2.15,15.31-.31,2.14-.69,4.26-1.04,6.39,2.12.54,2.91,1.29,3.15,3.1-.38-.26-.66-.45-.95-.64-.33-.23-.62-.51-.98-.68-.82-.4-1.65.01-1.8.88-.44,2.61-1,5.21-1.22,7.83-.12,1.36.36,2.79.62,4.17.04.19.39.42.63.47,3.01.63,6.05.67,9.11.45,1.84-.14,3.68-.36,5.52-.53.25-.02.51.04.77.04.75,0,1.51.08,2.24,0,1.59-.19,3.74,1.33,3.92,2.84-.78-.41-1.55-.85-2.35-1.22-1.01-.47-1.81-.22-2.55.63-1.12,1.29-2.74,1.61-4.33,1.75-3.35.29-6.71.43-10.05.73-2.07.19-4.18.34-6.15.94-1.53.47-2.91,1.53-4.28,2.44-3.36,2.24-6.29,4.99-9.17,7.8-1.46,1.43-2.91,2.87-4.75,3.87-.61.33-.9,1.27-1.29,1.95-.36.63-.66,1.3-1.09,1.93-.28-.94-.3-1.84.02-2.77.16-.44.12-.96.26-1.41.14-.45.31-.95.63-1.27,2.2-2.15,4.4-4.3,6.67-6.38,1.72-1.58,3.52-3.06,5.5-4.77-1.17.08-2.11.1-3.04.22-6.33.83-12.56,2.13-18.73,3.78-1.15.31-2.41.22-3.6.39-.45.07-.9.32-1.3.56-.6.35-1.17.77-1.93,1.28Zm25.59-108.49c-.09.03-.18.07-.26.1.03.28.05.56.09.84.44,3.1.56,6.28,1.38,9.27,1.36,4.98,3.15,9.85,4.76,14.76.58,1.76,1.21,3.46,2.39,4.95,1,1.26,1.28,2.86,1.17,4.45-.16,2.27-.95,4.37-1.87,6.44-1.13,2.52-2.33,5.02-3.2,7.63-2.43,7.34-4.73,14.72-7.03,22.1-.46,1.48-.89,3.03-.98,4.56-.15,2.56-.03,2.49,2.16,2.82,3.95.6,7.95.85,11.95,1.25.1-.39.21-.66.24-.94.69-5.16,1.41-10.31,2.03-15.48.5-4.07.86-8.15,1.32-12.22.25-2.26.38-4.5-.61-6.62-.93-1.99-1.09-3.97-.22-6.02.2-.46.29-.98.37-1.49.05-.29.04-.62-.04-.91-.66-2.32-1.37-4.63-2.02-6.96-1.88-6.77-3.74-13.56-6.88-19.89-1.46-2.95-3.17-5.78-4.76-8.66Z"/></g></svg>