<?xml version="1.0" encoding="UTF-8"?><svg id="Layer_2" xmlns="http://www.w3.org/2000/svg" viewBox="0 0 110.91 88.16"><defs><style>.cls-1{fill:#4170b7;}</style></defs><g id="Layer_1-2"><path class="cls-1" d="m108.91,52.47c-7.72-4.05-14.92-9.99-25.27-9.11,2.61,2.08,4.86,3.98,7.22,5.73,4.41,3.27,4.37,4.6-.06,7.55-3.02,2.01-5.84,4.31-8.82,6.38-3.19,2.22-3.52,4.59-.7,7.35.7.69,1.26,1.53,1.89,2.3-.25.33-.5.65-.74.98-1.52-1.31-3.04-2.62-5.24-4.51,0,3.4-1.1,6.36,4.39,7.9-2.22.67-3.76,1.65-4.4,1.23-1.43-.93-3.35-2.51-3.4-3.89-.18-4.41.67-8.61,5.01-11.3,3.45-2.14,6.64-4.7,9.92-7.11,2.48-1.83,3.26-4.03.16-5.76-6.34-3.54-12.85-6.78-19.29-10.14-.35.37-.7.74-1.04,1.11,1.22,4.27,2.61,8.49,3.6,12.81.55,2.39.81,4.97.57,7.4-.63,6.2-1.76,12.36-2.31,18.57-.09.99,1.61,2.69,2.82,3.12,1.81.64,3.91.44,6.07,1.16-7.45,1.31-14.89,2.62-22.34,3.93-.11-.23-.21-.46-.32-.68,1.53-.81,3.07-1.63,5.53-2.93-3.1-.4-5.34-.69-7.57-.97,0-.44,0-.89.01-1.33,4.14-.37,8.27-.74,13.63-1.22.46-3.26,1.17-7.88,1.75-12.52.99-7.93.52-15.68-3.2-22.95-1.7-3.32-2.45-7.4-8.09-6.61-2.17.31-4.65-2.19-7.11-3.1-5.28-1.96-10.76-3.44-15.94-5.63-9.28-3.91-10.54-8.99-4.74-17.25.45-.64.62-1.48,1.25-3.06C21.11,12.41,10.79,14.74,0,17.17c2.13-1.28,4.07-2.28,5.83-3.54,4.44-3.2,8.95-6.32,13.13-9.83C22.93.47,32-1.21,36.72,1c2.64,1.24,4.52,6.63,3.2,9.75-.67,1.58-1.75,3-2.66,4.48-1.13,1.84-3.03,4.33-.27,5.48,1.86.78,4.77-.41,6.98-1.28.89-.35,1.25-2.18,1.76-3.38,3.27-7.55,10.24-11.68,18.23-10.27,13.41,2.36,25.86,7.27,35.69,16.9,4.36,4.27,7.49,9.87,10.7,15.16.94,1.55.45,4.12.21,6.18-.31,2.68-1.02,5.31-1.66,8.45Z"/></g></svg>