<?xml version="1.0" encoding="UTF-8"?><svg id="Layer_2" xmlns="http://www.w3.org/2000/svg" viewBox="0 0 142.73 85.75"><defs><style>.cls-1{fill:#4170b7;}</style></defs><g id="Layer_1-2"><path class="cls-1" d="m38.94,53.49c2.54-3.31,4.86-6.22,7.01-9.26.37-.53.27-1.8-.12-2.39-2.24-3.36-4.44-6.78-7.03-9.87-2.29-2.73-5.18-4.94-7.63-7.55-6.01-6.42-6.88-13.4-2.66-22.28.88,1.28,1.62,2.37,2.49,3.64,3.81-3.28,4.06.35,5.08,2.92,1.36-.36,2.69-.72,4.25-1.13.42,1.26.81,2.43,1.31,3.93,2.4-1.43,4.54-3.46,6.89.24.79,1.24,3.88,1.2,5.96,1.39,5.73.51,9.77,4.37,14.33,7.13,1.63.98,2.68,1.07,4.46.21,9.25-4.45,17.31-10.06,20.92-20.47.45.18.89.35,1.34.53-.27,2.52-.55,5.04-.82,7.56.19.26.38.51.56.77,1.38-2.2,2.76-4.4,4.14-6.6.6.39,1.19.78,1.79,1.17-.53,1.93-1.06,3.86-1.59,5.79,2.21-.65,4.73-1.4,7.57-2.24-.35,1.25-.53,1.89-.77,2.75.67-.07,1.31.02,1.77-.22,3.36-1.76,6.1.2,8.74,1.64,2.26,1.23,1.97,3.77,1.43,5.84-1.61,6.19-3.12,12.43-5.33,18.42-1.03,2.78-3.44,5.11-5.44,7.47-3.94,4.64-8.03,9.16-12.04,13.7.46,1.15.71,2.63,1.53,3.64,1.62,2.01,3.44,3.9,5.4,5.57,2.15,1.84,4.87,3.09,6.78,5.13,3.24,3.46,14.17,7.42,18.56,5.55,4.42-1.88,5.89,2.55,8.98,3.44,1.89.54,3.23,2.95,5.92,5.61-3.13,0-5.64.56-7.76-.11-5.08-1.6-9.99-3.76-14.95-5.72-7.54-2.98-15.08-5.94-22.58-9.01-4.86-1.99-9.5-.54-14.39-.05-6.64.66-13.48-.17-20.18-.89-3.25-.35-6.56-1.52-9.51-2.99-4.05-2.02-7.66-1.81-11.53.26-1.61.86-3.57,1.34-5.4,1.45-7.06.4-10.78-4.06-8.77-11.81-9.29-1.32-18.46-2.63-27.62-3.94,0-.28-.02-.57-.03-.85,5.6-.64,11.22-1.16,16.79-1.98,2.51-.37,5.07-1.04,7.37-2.09,5.9-2.71,12.59-.43,14.78,5.7Z"/></g></svg>