<?xml version="1.0" encoding="UTF-8"?><svg id="Layer_2" xmlns="http://www.w3.org/2000/svg" viewBox="0 0 124.24 136.24"><defs><style>.cls-1{fill:#4170b7;}</style></defs><g id="Layer_1-2"><path class="cls-1" d="m94.75,136.24c-3.07-.16-6.15-.18-9.2-.5-6.59-.7-13-4.17-19.84-.65l-.47-1.09c1.28-1.08,2.55-2.16,3.43-2.89.52-9.01-4.63-15.69-8-23.06-.61-1.34.39-3.55.96-5.26,1.36-4.07,2.9-8.08,4.69-13-6.67,1.16-11.23-.1-12.23-6.94-6.94,4.24-13.25,3.35-19.74-.82,5.93-5.25,15.06-5.19,19.75-12.4-6.96-4.01-13-8.54-15.49-16.74-1.02-3.37-4.04-6.08-5.64-9.33-1.16-2.35-1.24-5.21-2.27-7.65-.57-1.35-1.89-2.67-3.2-3.35-6.14-3.15-12.38-6.11-18.63-9.05-1.41-.66-3.07-.77-4.49-1.41-2.75-1.22-4.24-2.83-.89-5.08-1.01-.89-2.03-1.78-3.47-3.04,1.76-.81,2.87-1.32,4.18-1.93-1.31-.82-2.4-1.5-4.2-2.62,2.09-1.01,3.52-1.7,5.06-2.44-1.21-1.1-2.29-2.09-4.46-4.07,18.42-2.15,35.28,2.66,52.57,1.92-.7-1.07-1.37-2.1-2.12-3.24.4-.35.66-.76.99-.85,7.08-1.85,13.8.08,20.52,2,1.8.51,3.59,1.22,5.43,1.42,6.06.65,9.66,5.83,8.01,11.78-1.44,5.17-3.69,10.28-4.09,15.53-.42,5.49.87,11.13,1.58,16.68.11.85,1.07,1.69,1.82,2.33,2.5,2.18,5,4.38,7.67,6.34.95.7,3.19,1.37,3.44,1.02.83-1.14,1.17-2.72,1.4-4.18.08-.55-.53-1.38-1.05-1.82-4.53-3.81-8.35-8.01-7.99-15.31,3.18-1.83,6.96-4.56,11.16-6.29,4.33-1.79,6.87-.22,9.26,3.82.7,1.19,2.2,2.13,3.54,2.66,3.85,1.54,7.8,2.81,11.5,5.15-3.77-.37-7.53-.8-11.3-1.11-4.18-.34-8.36-.64-12.55-.81-.58-.02-1.19.84-1.79,1.3.45.47.82,1.16,1.37,1.37,7.87,3.08,11.47,12.46,7.3,20.28-3.09,5.79-6.9,11.08-12.95,14.39-4.27,2.33-6.19,1.78-8.02-3.79-2.62,2.5-5.57,4.34-7.14,6.99-3.76,6.35-6.94,13.05-10.22,19.67-1.95,3.94-1.57,7.8.77,11.59,3.14,5.06,6.26,10.15,9.08,15.39,2.13,3.94,5.26,5.42,9.55,5.55,2.21.06,4.4.85,6.6,1.31-.07.75-.13,1.49-.2,2.24Zm-28.68-36.88c-4.23,7.13,2.91,28.29,10.3,29.87-.14-.91-.06-1.85-.43-2.54-1.98-3.7-3.84-7.48-6.17-10.95-3.32-4.95-6.93-9.67-3.48-16.02.03-.06-.14-.24-.22-.36Z"/></g></svg>